<?xml version="1.0" encoding="iso-8859-1"?>
<!-- Generator: Adobe Illustrator 19.0.0, SVG Export Plug-In . SVG Version: 6.00 Build 0)  -->
<svg version="1.1" id="Capa_1" xmlns="http://www.w3.org/2000/svg" xmlns:xlink="http://www.w3.org/1999/xlink" x="0px" y="0px"
	 viewBox="0 0 512 512" style="enable-background:new 0 0 512 512;" xml:space="preserve">
<path style="fill:#DA5B65;" d="M365.039,371.181L365.039,371.181c-52.696,0-95.415,42.719-95.415,95.415v28.303h33.057l7.5-3.791
	l7.5,3.791h26.295l21.063-13.809l21.063,13.809h26.295l5.292-3.791l9.707,3.791h33.057v-28.303
	C460.454,413.9,417.735,371.181,365.039,371.181z"/>
<path style="fill:#EFEDEE;" d="M146.961,371.181L146.961,371.181c-52.696,0-95.415,42.719-95.415,95.415v28.303h33.058l5.25-6.016
	l9.75,6.016h26.295l21.063-13.809l21.063,13.809h26.295l7.5-6.016l7.5,6.016h33.058v-28.303
	C242.375,413.9,199.657,371.181,146.961,371.181z"/>
<polygon style="fill:#00A5C6;" points="125.897,494.899 131.917,449.705 162.004,449.705 168.024,494.899 "/>
<path style="fill:#49C3E0;" d="M125.897,403.532v31.436c0,11.633,9.43,21.063,21.063,21.063l0,0c11.633,0,21.063-9.43,21.063-21.063
	v-31.436H125.897z"/>
<polygon style="fill:#D4D2D3;" points="343.976,494.899 349.995,449.705 380.083,449.705 386.102,494.899 "/>
<path style="fill:#EFEDEE;" d="M343.976,403.532v31.436c0,11.633,9.43,21.063,21.063,21.063l0,0c11.633,0,21.063-9.43,21.063-21.063
	v-31.436H343.976z"/>
<path style="fill:#C76D5F;" d="M232.577,317.389c0-70.669,59.422-128.162,132.463-128.162c73.04,0,132.462,57.493,132.462,128.162
	H232.577z"/>
<path style="fill:#AF4E42;" d="M365.039,189.227c-6.797,0-13.476,0.5-20,1.46c63.584,9.357,112.462,62.61,112.462,126.702h40
	C497.502,246.72,438.079,189.227,365.039,189.227z"/>
<path style="fill:#FFC4B0;" d="M253.534,316.881c0.226-46.704,48.947-77.876,91.483-58.588c3.213,1.457,6.125,2.971,8.67,4.411
	c7.05,3.987,15.655,3.987,22.705,0c2.546-1.44,5.457-2.954,8.671-4.411c42.536-19.288,91.257,11.884,91.483,58.588
	c0.001,0.169,0.001,0.339,0.001,0.508c0,59.208-49.923,107.206-111.507,107.206s-111.507-47.998-111.507-107.206
	C253.532,317.22,253.533,317.05,253.534,316.881z"/>
<path style="fill:#E6B09C;" d="M476.546,289.436c-2.042,0-4.03,0.225-5.948,0.64c-12.659-27.19-43.608-43.146-73.94-35.784
	c27.507,6.645,49.734,31.08,49.887,62.589c0.001,0.169,0.001,0.339,0.001,0.509c0,54.317-42.018,99.193-96.507,106.238
	c4.907,0.634,9.912,0.969,15,0.969c51.622,0,95.043-33.728,107.743-79.512c1.232,0.166,2.487,0.26,3.764,0.26
	c15.438,0,27.953-12.515,27.953-27.954C504.5,301.951,491.985,289.436,476.546,289.436z"/>
<path style="fill:#333E40;" d="M269.05,317.389H14.498c0-70.669,20.956-128.162,132.463-128.162
	c76.868,0,111.717-13.821,111.717-13.821S294.571,251.318,269.05,317.389z"/>
<path style="fill:#283234;" d="M54.498,317.389c0-56.224,11.337-104.737,61.687-126.474
	c-84.696,9.946-101.687,62.868-101.687,126.474H54.498z"/>
<circle style="fill:#E6B09C;" cx="258.47" cy="317.39" r="27.954"/>
<path style="fill:#FFC4B0;" d="M35.455,316.881c0.226-46.704,48.947-77.876,91.483-58.588c3.213,1.457,6.125,2.971,8.67,4.411
	c7.05,3.987,15.655,3.987,22.705,0c2.546-1.44,5.457-2.954,8.671-4.411c42.536-19.288,91.257,11.884,91.483,58.588
	c0.001,0.169,0.001,0.339,0.001,0.508c0,59.208-49.923,107.206-111.507,107.206S35.453,376.598,35.453,317.389
	C35.453,317.22,35.454,317.05,35.455,316.881z"/>
<path style="fill:#E6B09C;" d="M65.453,317.389c0-0.17,0-0.339,0.001-0.509c0.152-31.509,22.379-55.944,49.887-62.589
	c-30.332-7.363-61.282,8.594-73.94,35.784c-1.917-0.416-3.906-0.64-5.948-0.64c-15.438,0-27.953,12.515-27.953,27.954
	c0,15.438,12.515,27.954,27.953,27.954c1.277,0,2.532-0.094,3.764-0.26c12.699,45.784,56.121,79.512,107.743,79.512
	c5.087,0,10.093-0.334,15-0.969C107.471,416.582,65.453,371.706,65.453,317.389z"/>
<path style="fill:#3AC7B4;" d="M78.934,17.101h98.722c31.019,0,56.164,25.146,56.164,56.164l0,0
	c0,31.019-25.146,56.164-56.164,56.164h-24.911l13.099,29.643c1.845,4.174-2.913,8.166-6.703,5.625l-52.601-35.268H78.934
	c-31.019,0-56.164-25.146-56.164-56.164l0,0C22.77,42.246,47.915,17.101,78.934,17.101z"/>
<path style="fill:#49C3E0;" d="M433.066,17.101h-98.722c-31.019,0-56.164,25.146-56.164,56.164l0,0
	c0,31.019,25.146,56.164,56.164,56.164h24.911l-13.099,29.643c-1.845,4.174,2.913,8.166,6.703,5.625l52.601-35.268h27.607
	c31.019,0,56.164-25.146,56.164-56.164l0,0C489.23,42.246,464.085,17.101,433.066,17.101z"/>
<path d="M418.5,305.451c-4.142,0-7.5,3.358-7.5,7.5v8.979c0,4.142,3.358,7.5,7.5,7.5s7.5-3.358,7.5-7.5v-8.979
	C426,308.809,422.642,305.451,418.5,305.451z"/>
<path d="M309.5,305.451c-4.142,0-7.5,3.358-7.5,7.5v8.979c0,4.142,3.358,7.5,7.5,7.5s7.5-3.358,7.5-7.5v-8.979
	C317,308.809,313.642,305.451,309.5,305.451z"/>
<path d="M385.019,316.261c-3.12-2.726-7.856-2.408-10.583,0.711c-2.273,2.601-5.698,4.092-9.397,4.092s-7.124-1.491-9.397-4.091
	c-2.727-3.119-7.465-3.436-10.583-0.71c-3.119,2.726-3.437,7.464-0.71,10.583c5.122,5.859,12.663,9.219,20.69,9.219
	c8.028,0,15.569-3.36,20.691-9.22C388.456,323.726,388.138,318.987,385.019,316.261z"/>
<path d="M200.5,305.451c-4.142,0-7.5,3.358-7.5,7.5v8.979c0,4.142,3.358,7.5,7.5,7.5s7.5-3.358,7.5-7.5v-8.979
	C208,308.809,204.642,305.451,200.5,305.451z"/>
<path d="M91.5,305.451c-4.142,0-7.5,3.358-7.5,7.5v8.979c0,4.142,3.358,7.5,7.5,7.5s7.5-3.358,7.5-7.5v-8.979
	C99,308.809,95.642,305.451,91.5,305.451z"/>
<path d="M166.94,316.261c-3.12-2.726-7.856-2.408-10.583,0.711c-2.273,2.601-5.698,4.092-9.396,4.092s-7.124-1.491-9.397-4.091
	c-2.726-3.119-7.465-3.436-10.583-0.71c-3.119,2.726-3.437,7.464-0.71,10.583c5.122,5.859,12.663,9.219,20.69,9.219
	s15.569-3.36,20.69-9.22C170.377,323.726,170.059,318.987,166.94,316.261z"/>
<path d="M241.32,73.265c0-35.104-28.56-63.664-63.664-63.664H78.934c-35.104,0-63.664,28.56-63.664,63.664
	c0,35.105,28.56,63.665,63.664,63.665h25.325l50.706,33.997c2.017,1.352,4.337,2.067,6.709,2.067c4.091,0,7.882-2.07,10.141-5.538
	c2.214-3.398,2.547-7.666,0.89-11.415l-8.445-19.111h13.396C212.76,136.929,241.32,108.37,241.32,73.265z M152.745,121.929
	c-2.536,0-4.9,1.282-6.284,3.407s-1.601,4.805-0.576,7.125l8.992,20.347l-44.16-29.608c-1.235-0.828-2.689-1.271-4.177-1.271H78.934
	c-26.833,0-48.664-21.831-48.664-48.665S52.1,24.601,78.934,24.601h98.722c26.833,0,48.664,21.831,48.664,48.664
	s-21.831,48.665-48.664,48.665L152.745,121.929L152.745,121.929z"/>
<path d="M340.185,167.455c2.259,3.468,6.05,5.538,10.141,5.538c2.372,0,4.692-0.715,6.709-2.067l50.706-33.997h25.325
	c35.104,0,63.664-28.56,63.664-63.665c0-35.104-28.56-63.664-63.664-63.664h-98.722c-35.104,0-63.664,28.56-63.664,63.664
	c0,35.105,28.56,63.665,63.664,63.665h13.396l-8.446,19.112C337.638,159.79,337.971,164.057,340.185,167.455z M334.344,121.929
	c-26.833,0-48.664-21.831-48.664-48.665S307.511,24.6,334.344,24.6h98.722c26.833,0,48.664,21.831,48.664,48.664
	s-21.831,48.665-48.664,48.665h-27.607c-1.487,0-2.941,0.442-4.177,1.271l-44.16,29.608c0,0,8.976-20.312,8.992-20.347
	c2.157-4.881-1.539-10.532-6.86-10.532H334.344z"/>
<path d="M458.078,216.125c-3.135-2.708-7.87-2.362-10.579,0.771c-2.708,3.134-2.363,7.87,0.771,10.579
	c17.298,14.948,29.929,34.235,36.512,55.423c-3.119-0.742-6.362-1.046-9.564-0.927c-0.117,0.004-0.234-0.001-0.351,0.004
	c-5.056-8.994-11.841-16.54-19.734-22.424c-18.965-14.136-44.138-18.381-66.57-10.696c-5.518,1.89-10.792,4.451-15.864,7.319
	c-4.67,2.642-10.65,2.642-15.32,0c-6.065-3.43-12.4-6.388-19.102-8.337c-12.047-3.505-24.885-3.741-37.055-0.699
	c-5.488,1.355-10.823,3.354-15.849,5.943c-0.546-9.091-1.685-17.813-3.158-25.946c22.909-19.64,52.153-30.409,82.823-30.409
	c20.727,0,41.27,5.026,59.407,14.534c3.67,1.923,8.202,0.508,10.125-3.16c1.923-3.669,0.508-8.202-3.16-10.125
	c-20.278-10.63-43.229-16.249-66.372-16.249c-31.56,0-61.781,10.223-86.38,29.004c-5.614-22.235-12.615-37.288-13.202-38.53
	c-1.685-3.564-5.856-5.208-9.529-3.773c-0.34,0.133-34.862,13.299-108.968,13.299c-29.052,0-52.745,3.713-72.431,11.353
	c-3.861,1.499-5.777,5.844-4.279,9.706c1.499,3.861,5.844,5.777,9.706,4.279c17.675-6.859,40.219-10.337,67.004-10.337
	c58.952,0,93.651-7.981,107.5-12.047c5.073,12.748,15.912,44.004,16.221,78.884c0.047,5.277-0.154,10.749-0.641,16.069
	c-0.126,1.371-0.269,2.732-0.431,4.082c-1.292-0.427-2.615-0.771-3.955-1.046c-0.031-0.007-3.425-0.666-5.086-0.666
	c-0.114-0.007-0.227-0.017-0.341-0.023c-0.34-0.017-3.357,0.143-3.439-0.005c-5.113-9.097-11.991-16.719-20-22.631
	c-12.084-9.009-27.059-14.353-43.238-14.353c-7.874,0-15.606,1.308-23.075,3.867c-5.762,1.959-11.084,4.938-16.506,7.657
	c-4.316,2.164-9.597,2.181-13.924,0.049c-5.514-2.717-10.754-5.702-16.605-7.707c-7.467-2.558-15.198-3.865-23.071-3.865
	c-16.18,0-31.156,5.345-43.24,14.355c-8.007,5.911-14.884,13.533-19.996,22.628c-1.651-0.078-3.309-0.045-4.954,0.117
	c-0.015,0.001-0.03,0.002-0.045,0.003c-2.791,0.26-5.486,0.849-8.053,1.721c4.029-28.616,14.074-48.735,31.097-62.643
	c3.208-2.621,3.684-7.346,1.063-10.553c-2.62-3.208-7.345-3.684-10.553-1.063c-22.811,18.637-34.883,45.918-37.902,85.699
	C2.92,301.328,0,309.022,0,317.389c0,18.983,14.997,34.526,33.765,35.411c6.449,19.107,17.965,36.03,33.019,49.282
	c-14.713,18.247-22.738,40.866-22.738,64.515V494.9c0,4.142,3.358,7.5,7.5,7.5h190.829c4.142,0,7.5-3.358,7.5-7.5v-28.303
	c0-23.648-8.025-46.268-22.738-64.515c12.231-10.767,22.125-23.957,28.866-38.772c6.664,14.651,16.492,27.917,28.84,38.796
	c-14.701,18.243-22.719,40.852-22.719,64.491V494.9c0,4.142,3.358,7.5,7.5,7.5h190.83c4.142,0,7.5-3.358,7.5-7.5v-28.303
	c0-23.648-8.025-46.267-22.739-64.514c15.055-13.252,26.57-30.175,33.02-49.282C497.003,351.915,512,336.372,512,317.389
	c0-9.13-3.471-17.464-9.16-23.755C497.383,263.862,481.554,236.413,458.078,216.125z M264.245,336.884
	c1.93-10.807,2.551-22.234,0.487-33.069c-0.003-0.015-0.006-0.031-0.009-0.046c-0.266-1.419-0.569-2.828-0.92-4.224
	c0.187-0.575,0.384-1.149,0.59-1.718c0.019,0.006,0.039,0.011,0.058,0.017c8.485,2.578,14.471,10.692,14.471,19.546
	c0,9.281-6.212,17.137-14.697,19.629C264.232,336.974,264.237,336.929,264.245,336.884z M29.697,337.019
	C21.212,334.526,15,326.67,15,317.389c0-9.266,6.588-17.699,15.656-19.871c-1.407,4.969-2.259,10.093-2.565,15.331
	c-0.464,7.937,0.168,15.936,1.542,23.759C29.657,336.744,29.673,336.882,29.697,337.019z M156.082,462.051l3.376,25.349h-24.996
	l3.376-25.349c0.139,0.047,0.284,0.078,0.424,0.123c2.808,0.892,5.752,1.359,8.698,1.359c2.955,0,5.879-0.465,8.694-1.357
	C155.796,462.13,155.942,462.098,156.082,462.051z M160.523,434.968c0,7.293-6.161,13.542-13.524,13.562
	c-0.013,0-0.026,0.002-0.04,0.002c-7.322,0-13.562-6.239-13.562-13.563v-3.602c4.5,0.484,9.037,0.729,13.563,0.729
	c4.522,0,9.066-0.245,13.563-0.73L160.523,434.968L160.523,434.968z M59.046,466.596c0-20.28,6.905-39.676,19.566-55.293
	c12.158,8.259,25.579,14.128,39.786,17.483v6.182c0,6.377,2.102,12.272,5.647,17.031l-4.715,35.4H99.603v-36.168
	c0-4.142-3.358-7.5-7.5-7.5s-7.5,3.358-7.5,7.5v36.168H59.046V466.596z M234.875,487.399h-25.557v-36.168c0-4.142-3.358-7.5-7.5-7.5
	s-7.5,3.358-7.5,7.5v36.168h-19.727l-4.715-35.4c3.546-4.759,5.647-10.654,5.647-17.031v-6.182
	c14.206-3.356,27.628-9.225,39.786-17.483c12.661,15.618,19.566,35.014,19.566,55.293L234.875,487.399L234.875,487.399z
	 M166.323,415.356c-12.761,2.313-25.964,2.313-38.725,0c-39.574-7.173-71.296-35.901-81.322-72.928
	c-2.502-9.242-3.772-18.902-3.229-28.478c0.982-17.341,9.782-32.651,22.92-42.492c15.483-11.484,36.321-14.887,55.173-7.476
	c3.709,1.458,7.309,3.29,10.777,5.25c9.25,5.23,20.842,5.229,30.09,0c3.463-1.959,7.062-3.79,10.765-5.246
	c18.86-7.418,39.706-4.013,55.192,7.478c22.538,16.724,26.64,45.294,19.682,70.964C237.619,379.455,205.897,408.183,166.323,415.356
	z M277.124,466.596c0-20.285,6.909-39.686,19.576-55.306c1.936,1.316,3.981,2.459,5.926,3.756
	c10.544,6.303,21.917,10.914,33.849,13.736v6.186c0,6.377,2.102,12.272,5.648,17.031l-4.715,35.4h-19.727v-36.168
	c0-4.142-3.358-7.5-7.5-7.5s-7.5,3.358-7.5,7.5v36.168h-25.557V466.596z M378.603,434.968c0,3.702-1.494,7.06-3.907,9.509
	c-2.514,2.552-6.072,4.054-9.656,4.054c-5.959,0-11.349-4.161-13.026-9.854c-0.679-2.305-0.538-4.869-0.538-7.313
	c2.007,0.217,4.029,0.37,6.058,0.49c4.943,0.294,9.894,0.309,14.837,0.016c2.079-0.123,4.161-0.282,6.232-0.505V434.968z
	 M352.541,487.399l3.376-25.349c2.923,0.982,6.04,1.481,9.122,1.481c3.08,0,6.201-0.5,9.122-1.481l3.376,25.349H352.541z
	 M452.954,487.399h-25.558v-36.168c0-4.142-3.358-7.5-7.5-7.5s-7.5,3.358-7.5,7.5v36.168H392.67l-4.715-35.4
	c3.546-4.759,5.648-10.654,5.648-17.031v-6.182c14.206-3.355,27.627-9.225,39.785-17.483c12.662,15.618,19.567,35.014,19.567,55.293
	v20.803H452.954z M384.06,415.419c-24.96,4.441-51.857-0.145-73.829-13.297c-19.349-11.582-34.753-29.303-42.853-50.414
	c15.25-3.962,26.543-17.846,26.543-34.318c0-9.774-3.975-18.637-10.394-25.056c1.201-7.253,1.885-14.587,2.114-21.934
	c0.12-0.083,0.241-0.165,0.361-0.247c5.054-3.455,10.618-6.077,16.483-7.821c0.048-0.014,0.097-0.029,0.145-0.043
	c16.392-4.802,32.775-1.307,47.364,6.943c4.583,2.592,9.786,3.962,15.045,3.962s10.462-1.371,15.044-3.962
	c20.874-11.805,46.019-12.555,65.947,2.223c13.142,9.843,21.944,25.159,22.924,42.509c0.537,9.506-0.743,19.271-3.224,28.443
	C455.681,379.551,423.801,408.349,384.06,415.419z M482.302,337.019c1.422-7.95,2.078-16.075,1.608-24.146
	c-0.305-5.244-1.157-10.373-2.565-15.346c0.44,0.106,0.878,0.217,1.309,0.353c8.149,2.556,14.007,10.194,14.33,18.727
	c0.01,0.261,0.015,0.522,0.015,0.783C497,326.67,490.788,334.526,482.302,337.019z"/>
<g>
</g>
<g>
</g>
<g>
</g>
<g>
</g>
<g>
</g>
<g>
</g>
<g>
</g>
<g>
</g>
<g>
</g>
<g>
</g>
<g>
</g>
<g>
</g>
<g>
</g>
<g>
</g>
<g>
</g>
</svg>
