<svg id="Layer_5" enable-background="new 0 0 64 64" height="512" viewBox="0 0 64 64" width="512" xmlns="http://www.w3.org/2000/svg"><g><g><g><path d="m62 58v4h-60v-4h4 14 4 6 6 14 4 5.94z" fill="#b27946"/></g><g><path d="m2 30h16c-2.61 0-4.84 1.67-5.65 4h-10.35z" fill="#b27946"/></g><g><path d="m44 30h4c-2.61 0-4.84 1.67-5.65 4h-18.7c-.81-2.33-3.04-4-5.65-4h8 14z" fill="#b27946"/></g><g><path d="m50 30h12v4h-8.35c-.81-2.33-3.04-4-5.65-4z" fill="#b27946"/></g><g><path d="m30 54v4h-6c1.1 0 2-.9 2-2v-2h-6v-6c0-1.1-.9-2-2-2h-8.94c2.2-2.46 5.39-4 8.94-4 3.32 0 6.32 1.34 8.49 3.51s3.51 5.17 3.51 8.49z" fill="#b4dd7f"/></g><g><path d="m59.94 54v4h-5.94c1.1 0 2-.9 2-2v-2h-6v-6c0-1.1-.9-2-2-2h-9c2.2-2.46 5.39-4 8.94-4h.06c3.3.02 6.27 1.35 8.43 3.51 2.17 2.17 3.51 5.17 3.51 8.49z" fill="#b4dd7f"/></g><g><path d="m48 30h-4c1.1 0 2-.9 2-2v-2h-6v-6c0-1.1-.9-2-2-2h-8.94c2.2-2.46 5.39-4 8.94-4 3.32 0 6.32 1.34 8.49 3.51s3.51 5.17 3.51 8.49v4z" fill="#ff826e"/></g><g><path d="m50 54v4h-14c-1.1 0-2-.9-2-2v-8c0-1.1.9-2 2-2h3 9c1.1 0 2 .9 2 2z" fill="#ccd1d9"/></g><g><path d="m40 26v4h-14c-1.1 0-2-.9-2-2v-8c0-1.1.9-2 2-2h3.06 8.94c1.1 0 2 .9 2 2z" fill="#ccd1d9"/></g><g><path d="m46 26v2c0 1.1-.9 2-2 2h-4v-4z" fill="#aab2bd"/></g><g><path d="m56 54v2c0 1.1-.9 2-2 2h-4v-4z" fill="#aab2bd"/></g><g><path d="m26 54v2c0 1.1-.9 2-2 2h-4v-4z" fill="#aab2bd"/></g><g><path d="m20 54v4h-14c-1.1 0-2-.9-2-2v-8c0-1.1.9-2 2-2h3.06 8.94c1.1 0 2 .9 2 2z" fill="#ccd1d9"/></g><g><circle cx="12" cy="52" fill="#fcd770" r="2"/></g><g><circle cx="42" cy="52" fill="#fcd770" r="2"/></g><g><circle cx="32" cy="24" fill="#fcd770" r="2"/></g><g><path d="m21 10c0 2.32-.99 4.4-2.57 5.86l1.4 2.81c.11.22.17.46.17.7v.06c0 .87-.7 1.57-1.57 1.57-.28 0-.56-.08-.8-.22l-4.63-2.78c-4.94 0-8.84-4.48-7.84-9.6.6-3.12 3.12-5.64 6.24-6.24 5.12-1 9.6 2.9 9.6 7.84z" fill="#ffeaa7"/></g><g><circle cx="38" cy="8" fill="#f0d0b4" r="6"/></g><g><path d="m23.65 34c.23.63.35 1.3.35 2 0 3.31-2.69 6-6 6s-6-2.69-6-6c0-.7.12-1.37.35-2 .81-2.33 3.04-4 5.65-4s4.84 1.67 5.65 4z" fill="#f0d0b4"/></g><g><path d="m53.65 34c.23.63.35 1.3.35 2 0 3.31-2.69 6-6 6-.02 0-.04 0-.06 0-3.28-.03-5.94-2.71-5.94-6 0-.7.12-1.37.35-2 .81-2.33 3.04-4 5.65-4s4.84 1.67 5.65 4z" fill="#f0d0b4"/></g></g><g><path d="m63 29h-12v-3c0-5.739-3.742-10.612-8.91-12.331 1.759-1.273 2.91-3.337 2.91-5.669 0-3.86-3.141-7-7-7s-7 3.14-7 7c0 2.331 1.149 4.393 2.906 5.666-1.985.659-3.792 1.803-5.265 3.334h-2.641c-1.654 0-3 1.346-3 3v8c0 .352.072.686.184 1h-22.184v6h10.08c-.047.328-.08.66-.08 1 0 2.331 1.15 4.393 2.906 5.666-1.984.659-3.791 1.803-5.264 3.334h-2.642c-1.654 0-3 1.346-3 3v8c0 .352.072.686.184 1h-2.184v6h62v-6h-2.059v-3c0-5.724-3.723-10.586-8.871-12.316 1.771-1.272 2.93-3.343 2.93-5.684 0-.34-.033-.672-.08-1h8.08zm-30-21c0-2.757 2.243-5 5-5s5 2.243 5 5-2.243 5-5 5-5-2.243-5-5zm5 7c6.065 0 11 4.935 11 11v3h-2.184c.112-.314.184-.648.184-1v-3h-6v-5c0-1.654-1.346-3-3-3h-6.308c1.835-1.284 4.033-2 6.308-2zm3 12h4v1c0 .551-.448 1-1 1h-3zm-16 1v-8c0-.551.448-1 1-1h12c.552 0 1 .449 1 1v9h-13c-.552 0-1-.449-1-1zm1 3h14 1 2.111c-.587.574-1.068 1.251-1.425 2h-17.37c-.357-.749-.839-1.426-1.425-2zm25 24h4v1c0 .551-.448 1-1 1h-3zm-2 2h-13c-.552 0-1-.449-1-1v-8c0-.551.448-1 1-1h12c.552 0 1 .449 1 1zm-10.418-12h-2.582c-1.654 0-3 1.346-3 3v8c0 .352.072.686.184 1h-2.184v-3c0-5.739-3.742-10.612-8.91-12.331 1.759-1.273 2.91-3.337 2.91-5.669 0-.34-.033-.672-.08-1h16.16c-.047.328-.08.66-.08 1 0 2.322 1.141 4.377 2.886 5.651-2 .658-3.82 1.808-5.304 3.349zm-35.582-12v-2h10.111c-.587.574-1.068 1.251-1.425 2zm10 3c0-2.757 2.243-5 5-5s5 2.243 5 5-2.243 5-5 5-5-2.243-5-5zm5 7c6.065 0 11 4.935 11 11v3h-2.184c.112-.314.184-.648.184-1v-3h-6v-5c0-1.654-1.346-3-3-3h-6.307c1.834-1.284 4.032-2 6.307-2zm3 12h4v1c0 .551-.448 1-1 1h-3zm-16 1v-8c0-.551.448-1 1-1h12c.552 0 1 .449 1 1v9h-13c-.552 0-1-.449-1-1zm56 5h-58v-2h3 14 1 3 12 14 1 3 7zm-2.059-7v3h-2.126c.113-.314.185-.648.185-1v-3h-6v-5c0-1.654-1.346-3-3-3h-6.366c1.835-1.284 4.033-2 6.308-2 6.065 0 10.999 4.935 10.999 11zm-10.941-13c-2.757 0-5-2.243-5-5s2.243-5 5-5 5 2.243 5 5-2.243 5-5 5zm13-8h-6.685c-.357-.749-.839-1.426-1.425-2h8.11z"/><path d="m42 49c-1.654 0-3 1.346-3 3s1.346 3 3 3 3-1.346 3-3-1.346-3-3-3zm0 4c-.552 0-1-.449-1-1s.448-1 1-1 1 .449 1 1-.448 1-1 1z"/><path d="m12 49c-1.654 0-3 1.346-3 3s1.346 3 3 3 3-1.346 3-3-1.346-3-3-3zm0 4c-.552 0-1-.449-1-1s.448-1 1-1 1 .449 1 1-.448 1-1 1z"/><path d="m32 21c-1.654 0-3 1.346-3 3s1.346 3 3 3 3-1.346 3-3-1.346-3-3-3zm0 4c-.552 0-1-.449-1-1s.448-1 1-1 1 .449 1 1-.448 1-1 1z"/><path d="m12 9h2v2h-2z"/><path d="m12.716 18.996 4.397 2.639c.399.239.856.365 1.321.365 1.415 0 2.566-1.151 2.566-2.63 0-.396-.094-.792-.271-1.147l-1.084-2.167c1.505-1.651 2.355-3.819 2.355-6.056 0-2.698-1.195-5.23-3.278-6.947-2.082-1.717-4.821-2.4-7.517-1.878-3.521.684-6.347 3.509-7.03 7.029-.523 2.695.161 5.435 1.878 7.518 1.657 2.01 4.072 3.193 6.663 3.274zm-6.578-10.411c.53-2.728 2.72-4.917 5.448-5.448.466-.09.933-.135 1.396-.135 1.63 0 3.206.552 4.468 1.593 1.62 1.337 2.55 3.307 2.55 5.405 0 1.963-.799 3.785-2.249 5.129l-.551.51 1.74 3.477c.039.079.06.167.06.318 0 .415-.502.699-.857.486l-4.866-2.92h-.277c-2.099 0-4.068-.93-5.404-2.55s-1.867-3.758-1.458-5.865z"/><path d="m8 9h2v2h-2z"/><path d="m16 9h2v2h-2z"/></g></g></svg>