<?xml version="1.0"?>
<svg xmlns="http://www.w3.org/2000/svg" id="filled_outline" data-name="filled outline" viewBox="0 0 512 512" width="512" height="512"><polygon points="440 368 456.472 472 472.472 472 472 344 440 344 440 368" style="fill:#cf8300"/><polygon points="344.472 368 344 472 360.472 472 376.472 368 344.472 368" style="fill:#cf8300"/><polygon points="72 368 55.528 472 39.528 472 40 344 72 344 72 368" style="fill:#cf8300"/><polygon points="167.528 368 168 472 151.528 472 135.528 368 167.528 368" style="fill:#cf8300"/><path d="M56,304a32,32,0,0,0,32,32h48a32,32,0,0,1,32,32v0H80a56,56,0,0,1-56-56V184h0a32,32,0,0,1,32,32Z" style="fill:#f6bb00"/><path d="M456,304a32,32,0,0,1-32,32H376a32,32,0,0,0-32,32v0h88a56,56,0,0,0,56-56V184h0a32,32,0,0,0-32,32Z" style="fill:#f6bb00"/><path d="M344,144V112H320l-7.4314-17.94116,16.97046-16.97052L306.91162,54.46088,289.94116,71.43146,272,64V40H240V64l-17.94116,7.43146L205.08838,54.46088,182.46094,77.08832,199.4314,94.05884,192,112H168v32h24l7.4314,17.9411-16.97046,16.97058,22.62744,22.62738,16.97046-16.97052L240,192v24h32V192l17.94116-7.43146,16.97046,16.97052,22.62744-22.62738L312.5686,161.9411,320,144Zm-88,8a24,24,0,1,1,24-24A24,24,0,0,1,256,152Z" style="fill:#ef5e3b"/><path d="M357.272,288H320a40,40,0,0,0-40,40V440h8Z" style="fill:#42566b"/><path d="M432,304a32,32,0,0,1-32,32H349.272L304,440H280l29.7995-121.5262A40,40,0,0,1,348.64858,288H360V272h72Z" style="fill:#4d6378"/><path d="M456,220.05005v33.23A34.72687,34.72687,0,0,1,421.28,288H352V214.58008c.40991-13.71,6.39014-29.12012,17.18994-40.92017L381.67993,160H421.27l14.1001,12.99A63.995,63.995,0,0,1,456,220.05005Z" style="fill:#548aff"/><polygon points="392 288 392 254 352 264 352 288 392 288" style="fill:#f5c99d"/><polygon points="352 288 304 288 304 264 352 248 352 288" style="fill:#deae7e"/><path d="M376,104v40a24,24,0,0,0,24,24h0a24,24,0,0,0,24-24V104Z" style="fill:#f5c99d"/><path d="M376,104l0,0a54.62737,54.62737,0,0,0,38.62737,16H424V104a16,16,0,0,0-16-16H392a16,16,0,0,0-16,16Z" style="fill:#b1712c"/><path d="M154.728,288H192a40,40,0,0,1,40,40V440h-8Z" style="fill:#42566b"/><path d="M80,304a32,32,0,0,0,32,32h50.728L208,440h24L202.2005,318.4738A40,40,0,0,0,163.35142,288H152V272H80Z" style="fill:#4d6378"/><path d="M56,220.05005v33.23A34.72687,34.72687,0,0,0,90.72,288H160V214.58008c-.40991-13.71-6.39014-29.12012-17.18994-40.92017L130.32007,160H90.73l-14.1001,12.99A63.995,63.995,0,0,0,56,220.05005Z" style="fill:#548aff"/><polygon points="120 288 120 254 160 264 160 288 120 288" style="fill:#f5c99d"/><polygon points="160 288 208 288 208 264 160 248 160 288" style="fill:#deae7e"/><path d="M136,104v40a24,24,0,0,1-24,24h0a24,24,0,0,1-24-24V104Z" style="fill:#f5c99d"/><path d="M136,104l0,0a54.62737,54.62737,0,0,1-38.62737,16H88V104a16,16,0,0,1,16-16h16a16,16,0,0,1,16,16Z" style="fill:#b1712c"/><path d="M216,286.45764V264a8.00011,8.00011,0,0,0-5.47021-7.58936L168,242.23407V216.85645a71.83588,71.83588,0,0,0-18.874-48.59717l-8.72657-9.53961A31.79274,31.79274,0,0,0,144,144V104a24.02687,24.02687,0,0,0-24-24H104a24.02687,24.02687,0,0,0-24,24v40a31.81645,31.81645,0,0,0,2.596,12.61481L71.21045,167.106a71.97916,71.97916,0,0,0-16.68457,23.08569A39.92015,39.92015,0,0,0,24,176a7.99977,7.99977,0,0,0-8,8V312a63.72,63.72,0,0,0,15.991,42.25391l-.46265,117.71484a8.00045,8.00045,0,0,0,8,8.03125h16a7.99964,7.99964,0,0,0,7.90137-6.74854l15.40747-97.281c.38843.00708.773.02954,1.16284.02954h48.66528l14.9563,97.21631A7.99937,7.99937,0,0,0,151.52832,480H168a8.00049,8.00049,0,0,0,8-8.03613l-.3916-86.3313,25.05664,57.5603A7.99936,7.99936,0,0,0,208,448h24a7.99977,7.99977,0,0,0,8-8V328A48.017,48.017,0,0,0,216,286.45764Zm8,87.32434-14.0293-57.21362a47.99428,47.99428,0,0,0-9.91479-19.5398A32.056,32.056,0,0,1,224,328ZM152,270.24609V280H128V264.24609Zm48-.48V280H168V259.09937ZM96,144V128h1.37256A62.26161,62.26161,0,0,0,128,120.01123V144a16,16,0,0,1-32,0Zm0-40a8.00917,8.00917,0,0,1,8-8h16a8.01379,8.01379,0,0,1,7.42725,5.02637A46.2759,46.2759,0,0,1,97.37256,112H96ZM82.05225,178.87256l10.38855-9.57239a31.90516,31.90516,0,0,0,37.20947,1.37415l7.67,8.38427A55.87274,55.87274,0,0,1,152,216.85645v36.89721l-41.93994-10.48511A7.98824,7.98824,0,0,1,104,235.50781V216H88v19.50781A23.96534,23.96534,0,0,0,106.1792,258.791L112,260.24622V280H90.72119A26.75174,26.75174,0,0,1,64,253.27881V220.05469A56.15028,56.15028,0,0,1,82.05225,178.87256ZM78.69507,326.122A24.037,24.037,0,0,1,64,304V286.57666a42.82013,42.82013,0,0,0,8,5.09326V304A39.76316,39.76316,0,0,0,78.69507,326.122ZM48.6958,464H47.56006l.37976-96.6449a63.61914,63.61914,0,0,0,15.05945,6.33484ZM32,312V193.37109A24.04118,24.04118,0,0,1,48,216v88a40.04521,40.04521,0,0,0,40,40h48a24.04118,24.04118,0,0,1,22.62891,16H80A48.05436,48.05436,0,0,1,32,312ZM158.3916,464,144.853,376h14.71142l.39942,88ZM170.063,332.80713A7.99936,7.99936,0,0,0,162.728,328H112a24.02687,24.02687,0,0,1-24-24v-8.09583c.90076.057,1.8064.09583,2.72119.09583h72.63037a31.92941,31.92941,0,0,1,31.0791,24.37891L221.80115,432h-8.55847Z"/><path d="M256,96a32,32,0,1,0,32,32A32.036,32.036,0,0,0,256,96Zm0,48a16,16,0,1,1,16-16A16.01833,16.01833,0,0,1,256,144Z"/><path d="M280,216V197.34521l8.064-3.34033,13.19092,13.19092a8,8,0,0,0,11.31348,0l22.62744-22.62744a7.99915,7.99915,0,0,0,0-11.31348L322.00488,160.064,325.34521,152H344a7.99977,7.99977,0,0,0,8-8V112a7.99977,7.99977,0,0,0-8-8H325.34521l-3.34033-8.064L335.1958,82.74512a7.99915,7.99915,0,0,0,0-11.31348L312.56836,48.8042a8,8,0,0,0-11.31348,0L288.064,61.99512,280,58.65479V40a7.99977,7.99977,0,0,0-8-8H240a7.99977,7.99977,0,0,0-8,8V58.65479l-8.064,3.34033L210.74512,48.8042a8,8,0,0,0-11.31348,0L176.8042,71.43164a7.99915,7.99915,0,0,0,0,11.31348L189.99512,95.936,186.65479,104H168a7.99977,7.99977,0,0,0-8,8v32a7.99977,7.99977,0,0,0,8,8h18.65479l3.34033,8.064L176.8042,173.25488a7.99915,7.99915,0,0,0,0,11.31348l22.62744,22.62744a8,8,0,0,0,11.31348,0L223.936,194.00488,232,197.34521V216a7.99977,7.99977,0,0,0,8,8h32A7.99977,7.99977,0,0,0,280,216Zm-16-24v16H248V192a8.00015,8.00015,0,0,0-4.93848-7.39111l-17.94091-7.43164a8,8,0,0,0-8.71827,1.73437l-11.314,11.314-11.314-11.314,11.314-11.314a7.99981,7.99981,0,0,0,1.73437-8.71827l-7.43164-17.94091A8.00015,8.00015,0,0,0,192,136H176V120h16a8.00015,8.00015,0,0,0,7.39111-4.93848l7.43164-17.94091a7.99981,7.99981,0,0,0-1.73437-8.71827l-11.314-11.314,11.314-11.314,11.314,11.314a7.99894,7.99894,0,0,0,8.71827,1.73437l17.94091-7.43164A8.00015,8.00015,0,0,0,248,64V48h16V64a8.00015,8.00015,0,0,0,4.93848,7.39111l17.94091,7.43164a7.99788,7.99788,0,0,0,8.71827-1.73437l11.314-11.314,11.314,11.314-11.314,11.314a7.99981,7.99981,0,0,0-1.73437,8.71827l7.43164,17.94091A8.00015,8.00015,0,0,0,320,120h16v16H320a8.00015,8.00015,0,0,0-7.39111,4.93848l-7.43164,17.94091a7.99981,7.99981,0,0,0,1.73437,8.71827l11.314,11.314-11.314,11.314-11.314-11.314a8.003,8.003,0,0,0-8.71827-1.73437l-17.94091,7.43164A8.00015,8.00015,0,0,0,264,192Z"/><path d="M496,184a7.99977,7.99977,0,0,0-8-8,39.92015,39.92015,0,0,0-30.52588,14.19165A71.97916,71.97916,0,0,0,440.78955,167.106l-11.3855-10.49115A31.81645,31.81645,0,0,0,432,144V104a24.02687,24.02687,0,0,0-24-24H392a24.02687,24.02687,0,0,0-24,24v40a31.79308,31.79308,0,0,0,3.60071,14.71973l-8.72669,9.54A71.83376,71.83376,0,0,0,344,216.85645v29.49066l-41.83643,9.86627A8.0003,8.0003,0,0,0,296,264v22.45764A48.017,48.017,0,0,0,272,328V440a7.99977,7.99977,0,0,0,8,8h24a7.99936,7.99936,0,0,0,7.335-4.80713l25.05664-57.5603L336,471.96387A8.00049,8.00049,0,0,0,344,480h16.47168a7.99937,7.99937,0,0,0,7.90674-6.78369L383.33472,376H432c.38989,0,.77441-.02246,1.16284-.02954l15.40747,97.281A7.99964,7.99964,0,0,0,456.47168,480h16a8.00045,8.00045,0,0,0,8-8.03125L480.009,354.25391A63.72,63.72,0,0,0,496,312ZM440,291.66992a42.82013,42.82013,0,0,0,8-5.09326V304a24.037,24.037,0,0,1-14.69507,22.122A39.76316,39.76316,0,0,0,440,304ZM384,144V120.01123A62.26161,62.26161,0,0,0,414.62744,128H416v16a16,16,0,0,1-32,0Zm8-48h16a8.00917,8.00917,0,0,1,8,8v8h-1.37256a46.2759,46.2759,0,0,1-30.05469-10.97363A8.01379,8.01379,0,0,1,392,96Zm-17.32031,83.05908,7.67016-8.3847a31.90511,31.90511,0,0,0,37.20935-1.37421l10.38855,9.57239A56.15028,56.15028,0,0,1,448,220.05469v33.22412A26.75174,26.75174,0,0,1,421.27881,280H400V260.24622l5.8208-1.4552A23.96534,23.96534,0,0,0,424,235.50781V216H408v19.50781a7.98824,7.98824,0,0,1-6.06006,7.76074L360,253.75366V216.85645A55.87062,55.87062,0,0,1,374.67969,179.05908ZM360,270.24609l24-6V280H360ZM312,280v-9.667l32-7.54651V280Zm-.05591,17.02856a47.99428,47.99428,0,0,0-9.91479,19.5398L288,373.782V328A32.056,32.056,0,0,1,311.94409,297.02856ZM298.75732,432h-8.55847l27.37-111.62109A31.93038,31.93038,0,0,1,348.64844,296h72.63037c.91479,0,1.82043-.03882,2.72119-.09583V304a24.02687,24.02687,0,0,1-24,24H349.272a7.99936,7.99936,0,0,0-7.335,4.80713Zm54.85108,32h-1.57227l.39942-88H367.147Zm-.23731-104A24.04118,24.04118,0,0,1,376,344h48a40.04521,40.04521,0,0,0,40-40V216a24.04118,24.04118,0,0,1,16-22.62891V312a48.05436,48.05436,0,0,1-48,48ZM463.3042,464l-14.30347-90.31006a63.61914,63.61914,0,0,0,15.05945-6.33484L464.43994,464Z"/></svg>
