<svg height="512pt" viewBox="-22 0 512 512.00001" width="512pt" xmlns="http://www.w3.org/2000/svg"><path d="m329.761719 173.558594h52.070312v156.203125h-52.070312zm0 0" fill="#6b6b6b"/><path d="m416.542969 173.558594h52.066406v156.203125h-52.066406zm0 0" fill="#6b6b6b"/><path d="m277.695312 329.761719v-78.101563l-86.78125 78.101563v-78.101563l-86.777343 78.101563v173.5625h364.472656v-173.5625zm0 0" fill="#a9bfd1"/><path d="m329.761719 173.558594h52.070312v69.425781h-52.070312zm0 0" fill="#ea676b"/><path d="m416.542969 173.558594h52.066406v69.425781h-52.066406zm0 0" fill="#ea676b"/><g fill="#61b3bc"><path d="m260.339844 34.710938h-34.710938v-34.710938h-34.714844v34.710938h-34.710937v34.714843h34.710937v34.710938h34.714844v-34.710938h34.710938zm0 0"/><path d="m347.117188 60.746094h-17.355469v26.035156h-26.03125v17.355469h26.03125v26.03125h17.355469v-26.03125h26.035156v-17.355469h-26.035156zm0 0"/><path d="m407.863281 95.457031h17.359375v17.355469h-17.359375zm0 0"/><path d="m390.507812 112.8125h17.355469v17.355469h-17.355469zm0 0"/><path d="m407.863281 130.167969h17.359375v17.359375h-17.359375zm0 0"/><path d="m425.222656 112.8125h17.355469v17.355469h-17.355469zm0 0"/></g><path d="m234.304688 373.152344h27.988281c32.46875 0 58.792969 26.324218 58.792969 58.792968v27.988282h-27.988282c-32.46875 0-58.792968-26.324219-58.792968-58.792969zm0 0" fill="#49824d"/><path d="m104.136719 407.863281h86.777343v52.070313h-86.777343zm0 0" fill="#6b6b6b"/><path d="m69.425781 390.507812h34.710938v86.78125h-34.710938zm0 0" fill="#d1d3d3"/><path d="m34.710938 512v-52.066406h34.714843v-34.714844h-43.027343c-14.578126 0-26.398438 11.820312-26.398438 26.398438v60.382812zm0 0" fill="#c1dce5"/><path d="m295.050781 421.628906v-38.503906c-5.316406-3.550781-11.179687-6.207031-17.355469-7.863281v29.011719l-31.121093-31.121094h-12.269531v12.269531l31.121093 31.121094h-29.011719c1.65625 6.175781 4.3125 12.039062 7.863282 17.355469h38.503906l26.03125 26.035156h12.273438v-12.269532zm0 0" fill="#90b78a"/><path d="m354.929688 407.863281h18.222656v18.226563c0 18.691406-15.152344 33.84375-33.84375 33.84375h-18.222656v-18.222656c0-18.695313 15.152343-33.847657 33.84375-33.847657zm0 0" fill="#49824d"/></svg>